# xmcd CD database file
#
# Track frame offsets:
#	150
#	17463
#	40967
#	54759
#	75159
#	90109
#	112921
#	127571
#	142266
#	164871
#	182960
#	197979
#	218101
#	241176
#	264372
#	289766
#
# Disc length: 4251 seconds
#
# Revision: 0
# Processed by: cddbd v1.5.2PL0 Copyright (c) Steve Scherf et al.
# Submitted via: CDex 1.51
#
DISCID=ce109910
DTITLE=Various Artist - MONTE CARLO NIGHTS PRES. NEW CLASSICS VOL. 5
DYEAR=1900
DGENRE=New Age
TTITLE0=No puedo quitar mis ojos de ti
TTITLE1=Lady Marmelade
TTITLE2=When I Fall in Love
TTITLE3=Crazy
TTITLE4=Personal Jesus
TTITLE5=Danca Danca Dancarino
TTITLE6=Your Song
TTITLE7=Trio Tainted Love
TTITLE8=Song for My Father
TTITLE9=A View to a Kill
TTITLE10=Un ano de amor
TTITLE11=People Hold on
TTITLE12=Owner of a Lonely Hear
TTITLE13=I Can't Help it
TTITLE14=Sign Your name
TTITLE15=Carmen (Habanera)
EXTD=
EXTT0=
EXTT1=
EXTT2=
EXTT3=
EXTT4=
EXTT5=
EXTT6=
EXTT7=
EXTT8=
EXTT9=
EXTT10=
EXTT11=
EXTT12=
EXTT13=
EXTT14=
EXTT15=
PLAYORDER=
